<?xml version="1.0" standalone="no"?>
<!DOCTYPE svg PUBLIC "-//W3C//DTD SVG 1.1//EN" "http://www.w3.org/Graphics/SVG/1.1/DTD/svg11.dtd" >
<!--
2013-9-30: Created.
-->
<svg>
<metadata>
Created by iconfont
</metadata>
<defs>

<font id="iconfont" horiz-adv-x="1024" >
  <font-face
    font-family="iconfont"
    font-weight="500"
    font-stretch="normal"
    units-per-em="1024"
    ascent="896"
    descent="-128"
  />
    <missing-glyph />
    
    <glyph glyph-name="youxiang" unicode="&#58978;" d="M880 620 144 620c-44.112 0-80-35.888-80-80l0-512c0-44.112 35.888-80 80-80l736 0c44.112 0 80 35.888 80 80L960 540C960 584.112 924.112 620 880 620zM636.496 304.176l289.568 243.84c0.432 0.368 0.624 0.864 0.992 1.264C927.648 546.272 928 543.168 928 540l0-512c0-4.624-0.864-9.008-2.096-13.248L636.496 304.176zM880 588c12.272 0 23.36-4.768 31.84-12.352-2.288-0.576-4.496-1.52-6.416-3.136L512 241.168l-95.824 80.704c-0.24 0.288-0.336 0.64-0.608 0.912-0.672 0.672-1.52 0.976-2.272 1.504L118.56 572.496c-1.92 1.616-4.128 2.56-6.416 3.136C120.64 583.232 131.728 588 144 588L880 588zM96 28 96 540c0 3.184 0.352 6.288 0.944 9.296 0.384-0.4 0.576-0.912 1.008-1.28l282.4-237.824-284.16-284.16C96.176 26.704 96 27.328 96 28zM144-20c-15.056 0-28.352 7.104-37.152 17.984 4.064 0.032 8.112 1.568 11.216 4.672l286.864 286.848 96.768-81.488c0.768-0.64 1.664-0.96 2.496-1.44 0.592-0.336 1.12-0.752 1.744-1.008 1.952-0.8 3.984-1.312 6.048-1.312 0 0 0 0 0 0s0 0 0 0c2.064 0 4.096 0.512 6.048 1.312 0.624 0.256 1.136 0.672 1.744 0.992 0.848 0.48 1.744 0.8 2.528 1.456l89.616 75.456 294.016-294.016c0.4-0.4 0.912-0.544 1.328-0.88C899.52-16.8 890.144-20 880-20L144-20z"  horiz-adv-x="1024" />

    
    <glyph glyph-name="taiyang" unicode="&#58970;" d="M512 384m-256 0a256 256 0 1 1 512 0 256 256 0 1 1-512 0ZM238.933333 597.333333c17.066667-17.066667 42.666667-17.066667 59.733334 0s17.066667 42.666667 0 59.733334l-55.466667 55.466666c-17.066667 17.066667-42.666667 17.066667-59.733333 0-17.066667-17.066667-17.066667-42.666667 0-59.733333l55.466666-55.466667zM512 686.933333c25.6 0 42.666667 17.066667 42.666667 42.666667V810.666667c0 25.6-17.066667 42.666667-42.666667 42.666666s-42.666667-17.066667-42.666667-42.666666v-81.066667c0-25.6 17.066667-42.666667 42.666667-42.666667zM785.066667 597.333333l55.466666 55.466667c17.066667 17.066667 17.066667 42.666667 0 59.733333-17.066667 17.066667-42.666667 17.066667-59.733333 0l-55.466667-55.466666c-17.066667-17.066667-17.066667-42.666667 0-59.733334s42.666667-17.066667 59.733334 0zM209.066667 384c0 25.6-17.066667 42.666667-42.666667 42.666667h-81.066667c-25.6 0-42.666667-17.066667-42.666666-42.666667s17.066667-42.666667 42.666666-42.666667h81.066667c25.6 0 42.666667 17.066667 42.666667 42.666667zM785.066667 170.666667c-17.066667 17.066667-42.666667 17.066667-59.733334 0s-17.066667-42.666667 0-59.733334l55.466667-55.466666c17.066667-17.066667 42.666667-17.066667 59.733333 0 17.066667 17.066667 17.066667 42.666667 0 59.733333l-55.466666 55.466667zM238.933333 170.666667l-55.466666-55.466667c-17.066667-17.066667-17.066667-42.666667 0-59.733333 17.066667-17.066667 42.666667-17.066667 59.733333 0l55.466667 55.466666c17.066667 17.066667 17.066667 42.666667 0 59.733334s-42.666667 17.066667-59.733334 0zM938.666667 426.666667h-81.066667c-25.6 0-42.666667-17.066667-42.666667-42.666667s17.066667-42.666667 42.666667-42.666667h81.066667c25.6 0 42.666667 17.066667 42.666666 42.666667s-17.066667 42.666667-42.666666 42.666667zM512 81.066667c-25.6 0-42.666667-17.066667-42.666667-42.666667v-81.066667c0-25.6 17.066667-42.666667 42.666667-42.666666s42.666667 17.066667 42.666667 42.666666v81.066667c0 25.6-17.066667 42.666667-42.666667 42.666667z"  horiz-adv-x="1024" />

    
    <glyph glyph-name="yueliang" unicode="&#58897;" d="M807.9 148.3c-20.9-3.5-42.2-5.2-63.9-5.2-70.5 0-135.8 17.4-195.9 52.3-60.1 34.9-107.5 82.3-142.4 142.4s-52.3 125.4-52.3 195.9c0 74.4 20.2 143.6 60.5 207.5-77.9-23.2-141.6-67.6-191-133-49.4-65.5-74.1-139.9-74.1-223.2 0-50.4 9.9-98.5 29.6-144.4s46.2-85.4 79.3-118.6c33.1-33.2 72.7-59.6 118.6-79.3s94.1-29.6 144.4-29.6c55.8 0 108.8 11.9 159 35.7 50.3 23.7 93 56.9 128.2 99.5z m118 49.4c-36.4-78.7-91.3-141.5-164.8-188.6-73.5-47.1-153.6-70.6-240.3-70.6-60.5 0-118.2 11.8-173.2 35.5s-102.5 55.4-142.4 95.3c-39.9 39.9-71.7 87.4-95.3 142.4-23.6 55.1-35.4 112.8-35.5 173.2 0 59.3 11.1 115.9 33.4 170s52.5 100.9 90.7 140.4 83.8 71.4 136.9 95.6c53 24.3 109.2 37.5 168.6 39.9 17.1 0.8 28.9-6.8 35.5-22.7 7-15.9 4.1-29.8-8.7-41.9-33.3-30.2-58.8-65.4-76.4-105.5s-26.4-82.5-26.4-127c0-57.3 14.1-110.2 42.4-158.7s66.6-86.8 115.1-115.1 101.4-42.4 158.7-42.4c45.7 0 89.9 9.9 132.5 29.6 15.9 7 29.8 4.5 41.9-7.6 5.4-5.4 8.8-12 10.2-19.8s0.5-15.2-2.6-22.1l-0.3 0.1z"  horiz-adv-x="1024" />

    
    <glyph glyph-name="bilibili" unicode="&#58905;" d="M998.4 543.744c-3.072 136.192-121.856 162.304-121.856 162.304s-92.672 0.512-212.992 1.536l87.552 84.48s13.824 17.408-9.728 36.864c-23.552 19.456-25.088 10.752-33.28 5.632-7.168-5.12-112.128-108.032-130.56-126.464-47.616 0-97.28 0.512-145.408 0.512h16.896S323.584 832.512 315.392 838.144s-9.216 13.824-33.28-5.632c-23.552-19.456-9.728-36.864-9.728-36.864l89.6-87.04c-97.28 0-181.248-0.512-220.16-2.048C15.872 670.208 25.6 543.744 25.6 543.744s1.536-271.36 0-408.576c13.824-137.216 119.296-159.232 119.296-159.232s41.984-1.024 73.216-1.024c3.072-8.704 5.632-51.712 53.76-51.712 47.616 0 53.76 51.712 53.76 51.712s350.72 1.536 379.904 1.536c1.536-14.848 8.704-54.272 56.832-53.76 47.616 1.024 51.2 56.832 51.2 56.832s16.384 1.536 65.024 0c113.664 20.992 120.32 154.112 120.32 154.112s-2.048 273.92-0.512 410.112z m-97.792-434.176c0-21.504-16.896-38.912-37.888-38.912h-691.2c-20.992 0-37.888 17.408-37.888 38.912V567.808c0 21.504 16.896 38.912 37.888 38.912h691.2c20.992 0 37.888-17.408 37.888-38.912v-458.24zM409.088 477.184l-203.264-38.912 17.408-76.288 201.216 38.912zM518.656 274.944c-49.664-106.496-94.208-26.112-94.208-26.112l-33.28-21.504s65.536-89.6 128-21.504c73.728-68.096 130.048 22.016 130.048 22.016l-30.208 19.456c0 0.512-52.736-75.776-100.352 27.648zM619.008 400.896l201.728-38.912 16.896 76.288-202.752 38.912z"  horiz-adv-x="1024" />

    
    <glyph glyph-name="yunpan" unicode="&#58991;" d="M841.6 878.4c40 0 78.4-16 107.2-43.2 28.8-28.8 44.8-67.2 43.2-107.2v-659.2c0-40-16-78.4-43.2-107.2-28.8-28.8-67.2-44.8-107.2-43.2h-659.2c-40 0-78.4 16-107.2 43.2-28.8 28.8-44.8 67.2-44.8 107.2v659.2c0 40 16 78.4 43.2 107.2 28.8 28.8 67.2 44.8 107.2 44.8h660.8z m0-878.4c38.4 0 68.8 30.4 68.8 68.8V224h-142.4c-51.2-73.6-136-110.4-256-110.4s-208 36.8-262.4 110.4h-136v-155.2c0-38.4 30.4-68.8 68.8-68.8h659.2z m-208 355.2c28.8 0 57.6 11.2 78.4 32 20.8 20.8 32 48 32 78.4 0 46.4-32 89.6-76.8 104-14.4 75.2-78.4 128-155.2 128-75.2 0-140.8-54.4-155.2-128-46.4-14.4-76.8-54.4-76.8-104 0-28.8 11.2-57.6 32-78.4 20.8-20.8 48-32 78.4-32h243.2zM512 624c40 0 75.2-28.8 84.8-68.8l8-43.2 40-12.8c14.4-4.8 24-17.6 24-35.2 0-9.6-3.2-19.2-11.2-25.6-6.4-6.4-16-11.2-25.6-11.2h-244.8c-9.6 0-19.2 3.2-25.6 11.2-6.4 6.4-11.2 16-11.2 25.6 0 16 12.8 30.4 27.2 35.2l40 12.8 8 43.2c11.2 40 44.8 68.8 86.4 68.8z m0 0"  horiz-adv-x="1024" />

    
    <glyph glyph-name="weibiaoti-" unicode="&#58884;" d="M732.16 524.8c-10.24 0-20.48-1.28-30.72-2.56C661.76 623.36 563.2 691.2 454.4 691.2 307.2 691.2 188.16 572.16 188.16 426.24v-8.96C111.36 396.8 55.04 326.4 55.04 243.2c0-98.56 80.64-179.2 179.2-179.2H733.44c126.72 0 230.4 103.68 230.4 230.4s-104.96 230.4-231.68 230.4z m0-408.32h-499.2c-70.4 0-128 57.6-128 128 0 65.28 48.64 120.32 113.92 126.72l25.6 2.56-2.56 25.6c-1.28 8.96-1.28 17.92-1.28 26.88 0 117.76 96 213.76 213.76 213.76 94.72 0 179.2-62.72 204.8-153.6l6.4-23.04 23.04 5.12c14.08 3.84 28.16 5.12 42.24 5.12 98.56 0 179.2-80.64 179.2-179.2s-79.36-177.92-177.92-177.92z"  horiz-adv-x="1024" />

    
    <glyph glyph-name="yinyue" unicode="&#58880;" d="M270.98742675 13.211425780000013C200.2005168 13.211425780000013 141.21142578 70.51511473000005 141.21142578 142.98742675000005s57.30368895 129.77600098 129.77600098 129.77600098c28.65184411 0 55.61828614-10.11241539 79.21392253-26.96644202l6.74161051-5.0562077V657.03522297c0 25.28103922 20.22483153 45.50587073 43.82046793 45.50587001l433.14847086 50.56207843h3.37080489C860.87834062 754.78857422 882.78857422 734.56374269 882.78857422 709.28270348v-487.08135418c0-35.39345461-13.48322102-67.41610433-38.76426024-91.01174074-23.5956364-23.5956364-57.30368895-37.07885742-91.01174073-37.07885743-70.78690995 0-129.77600098 57.30368895-129.77600098 129.77600098 0 70.78690995 57.30368895 129.77600098 129.77600098 129.77600098 28.65184411 0 57.30368895-10.11241539 79.21392253-26.96644204l6.74161051-5.05620769V547.48405351l-438.20467856-47.19127356v-357.30535319c-1.68540281-72.47231203-58.98909102-129.77600098-129.77600098-129.77600098z m1e-8 214.04613122c-47.19127282 0-85.95553305-38.76426023-85.95553305-85.95553306s38.76426023-85.95553305 85.95553305-85.95553305 85.95553305 38.76426023 85.95553304 85.95553305c-1.68540281 48.87667563-38.76426023 85.95553305-85.95553304 85.95553306z m482.02514649 80.89932534c-47.19127282 0-85.95553305-38.76426023-85.95553305-85.95553305s38.76426023-85.95553305 85.95553305-85.95553304 85.95553305 38.76426023 85.95553304 85.95553304-38.76426023 85.95553305-85.95553304 85.95553305z m-353.93454833 235.95636555l438.20467856 47.19127282V710.96810629l-433.14847085-50.56207844h-5.05620771v-116.29277996z"  horiz-adv-x="1024" />

    
    <glyph glyph-name="bizhi" unicode="&#58891;" d="M819.567593-128c-96.415944 0-247.926714 20.66056-316.795246 199.718742-41.321119 96.415944-130.85021 158.397623-234.153008 158.397623 0 0-110.189651 0-165.284476-48.207972-6.886853-6.886853-13.773706-13.773706-20.660559-27.547413l-13.773707-34.434266V78.605595c0-41.321119 20.66056-82.642238 55.094826-110.189651s68.868532-41.321119 110.189651-41.321119c20.66056 0 96.415944 0 130.85021 41.321119 13.773706 13.773706 20.66056 34.434266 20.660559 61.981679-6.886853 82.642238-96.415944 89.529091-137.737063 89.529091-48.207972 0-68.868532-6.886853-75.755385-13.773706-6.886853-6.886853-13.773706-20.66056-13.773706-34.434266 0-6.886853 0-13.773706 6.886853-20.66056 27.547413-20.66056 89.529091-27.547413 123.963357-20.660559 13.773706 0 27.547413-6.886853 27.547413-27.547413 0-13.773706-6.886853-27.547413-27.547413-27.547412-13.773706 0-117.076504-6.886853-165.284476 41.321119-20.66056 13.773706-27.547413 34.434266-27.547413 61.981678s6.886853 55.094825 27.547413 68.868532c13.773706 13.773706 48.207972 34.434266 110.189651 34.434266 89.529091 0 185.945036-34.434266 199.718742-144.623917 0-41.321119-6.886853-75.755385-34.434266-103.302797-48.207972-48.207972-123.963357-55.094825-172.17133-55.094826-55.094825-6.886853-110.189651 13.773706-151.510769 55.094826-41.321119 34.434266-68.868532 89.529091-75.755385 144.623916v20.66056c0 27.547413 6.886853 61.981679 20.660559 82.642238l199.718742 592.269373C261.732486 863.706857 351.261578 911.914829 440.790669 891.254269c82.642238-6.886853 89.529091-6.886853 247.926714-123.963357 89.529091-68.868532 192.831889-103.302798 303.02154-103.302797h34.434265l-137.737063-791.988115h-48.207972-20.66056z m-557.835107 413.21119c130.85021 0 241.039861-75.755385 289.247834-192.831888 68.868532-172.171329 206.605595-172.171329 303.021539-165.284477L971.078363 608.893289c-110.189651 6.886853-220.379302 48.207972-303.02154 117.076504C516.546054 829.272591 516.546054 829.272591 447.677522 836.159444 378.80899 849.93315 309.940458 815.498885 282.393046 753.517206L117.10857 257.663778c55.094825 27.547413 123.963357 27.547413 144.623916 27.547412z"  horiz-adv-x="1033" />

    
    <glyph glyph-name="fanyi" unicode="&#59098;" d="M539.733333 227.413333a41.856 41.856 0 0 1-9.813333 44.8l-89.173333 87.893334 1.28 1.28A747.477333 747.477333 0 0 1 600.32 640h82.773333a42.666667 42.666667 0 0 1 42.24 42.24v0.853333a42.666667 42.666667 0 0 1-42.24 42.24H426.666667V768a42.666667 42.666667 0 0 1-85.333334 0v-42.666667H84.906667a42.24 42.24 0 1 1 0-84.48h434.346666A668.202667 668.202667 0 0 0 384 411.733333a660.522667 660.522667 0 0 0-87.893333 122.88 37.76 37.76 0 0 1-33.28 20.053334 38.741333 38.741333 0 0 1-33.706667-57.6 753.621333 753.621333 0 0 1 98.133333-136.96L140.8 176.213333a42.24 42.24 0 0 1 0-60.586666 43.008 43.008 0 0 1 60.586667 0L384 298.666667l86.186667-86.186667a42.368 42.368 0 0 1 69.546666 14.933333zM746.666667 469.333333a61.269333 61.269333 0 0 1-57.6-40.106666l-156.586667-418.133334a39.552 39.552 0 0 1 37.12-53.76 40.106667 40.106667 0 0 1 37.546667 26.026667l37.973333 101.973333h202.666667l38.4-101.973333a40.704 40.704 0 0 1 37.546666-26.026667 39.936 39.936 0 0 1 37.546667 53.76l-156.586667 418.133334A62.250667 62.250667 0 0 1 746.666667 469.333333z m-69.12-298.666666l69.12 184.746666L815.786667 170.666667h-138.24z"  horiz-adv-x="1024" />

    
    <glyph glyph-name="tubiao_ditu" unicode="&#59018;" d="M995.84 616.96a60.330667 60.330667 0 0 1-58.88 3.413333l-130.56-64a42.666667 42.666667 0 1 1 37.546667-76.8L938.666667 525.653333v-436.053333l-276.48-130.56-279.893334 139.093333a60.586667 60.586667 0 0 1-52.906666 0L85.333333-20.48V448l92.16 43.52c21.333333 10.24 30.72 35.84 20.48 57.173333a42.496 42.496 0 0 1-56.32 20.48l-106.666666-50.346666c-21.333333-10.24-34.986667-31.573333-34.986667-54.613334v-523.946666c0-21.333333 10.24-40.106667 28.16-51.2 17.92-11.093333 39.253333-11.946667 58.88-3.413334l268.8 130.56 279.893333-137.386666c7.68-5.12 17.066667-6.826667 26.453334-6.826667 8.533333 0 17.92 1.706667 25.6 5.973333l301.226666 141.653334c21.333333 9.386667 34.986667 31.573333 34.986667 54.613333V565.76c0 20.48-10.24 40.106667-28.16 51.2zM512 203.946667c28.16 0 54.613333 14.506667 70.826667 38.4C667.306667 372.906667 768 547.84 768 640c0 140.8-115.2 256-256 256S256 780.8 256 640c0-92.16 100.693333-267.093333 185.173333-397.653333 16.213333-23.893333 42.666667-38.4 70.826667-38.4zM512 810.666667c93.866667 0 170.666667-76.8 170.666667-170.666667 0-52.906667-65.706667-187.733333-169.813334-351.573333C407.04 452.266667 341.333333 586.24 341.333333 640c0 93.866667 76.8 170.666667 170.666667 170.666667z"  horiz-adv-x="1024" />

    
    <glyph glyph-name="tupian" unicode="&#59086;" d="M778 712.2H247c-50.8 0-92-41.2-92-92v-435c-1.2-4.8-1.2-9.4 0-14v-23.6c0-50.8 41.2-92 92-92h531c50.8 0 92 41.2 92 92V620.2c0 50.8-41.2 92-92 92z m-531-56h531c19.8 0 36-16.2 36-36v-349.4c-20.8 28.2-46 59-72.2 83.4-15.6 14.6-35 20.6-56.2 17.6-33.4-4.8-70-32.6-111.8-84.8-10-12.4-19-24.8-26.4-35.4-36.8 50.8-109.2 144.6-170.6 187.8-18.2 12.8-38.6 15.8-59.4 9-22.6-7.4-44.6-26.6-67-58.6-13-18.4-26.2-41.2-39.6-68V620.2c0.2 20 16.2 36 36.2 36zM632 521.2a63 63 0 1 1 126 0 63 63 0 1 1-126 0z"  horiz-adv-x="1024" />

    
    <glyph glyph-name="baidu1" unicode="&#59067;" d="M217.525734 280.26554c99.964736 21.048385 86.319971 138.238434 83.388199 163.851788-4.922103 39.497573-52.297087 108.467387-116.594485 102.95586-80.938404-7.059789-92.750427-121.633245-92.750427-121.633245C80.604294 372.395844 117.726773 259.168036 217.525734 280.26554zM641.065006 467.555134c73.837682-9.471722 121.181967 67.737754 130.659829 126.251426 9.67536 58.430784-38.055734 126.394688-90.226954 138.062426-52.41272 11.800767-117.829616-70.406536-123.725906-124.034944C550.598598 542.22988 567.288722 476.831404 641.065006 467.555134zM403.151431 476.729074c55.187927 0 99.786681 62.310138 99.786681 139.28323 0 76.984349-44.598754 139.201365-99.786681 139.201365-55.208393 0-99.92278-62.217017-99.92278-139.201365C303.228651 539.039211 347.943039 476.729074 403.151431 476.729074zM933.578106 369.266573c0 27.984355-23.636327 112.337531-111.693872 112.337531-88.216157 0-99.902314-79.611176-99.902314-135.857201 0-53.689806 4.586458-128.550795 114.115014-126.230959C945.568185 221.897178 933.578106 341.08779 933.578106 369.266573zM821.884234 123.609641c0 0-114.176412 86.536912-180.819229 180.13566-90.466408 138.001027-218.885196 81.786725-261.821077 11.719926-42.798758-70.252017-109.316731-114.612341-118.835526-126.396735-9.613962-11.533684-137.916093-79.476099-109.452831-203.501834C179.481256-138.386422 279.540136-136.057377 279.540136-136.057377s73.733305-7.037277 159.247934 11.678994c85.691661 18.685571 159.435199-4.596691 159.435199-4.596691s199.900819-65.697281 254.531044 60.697407C907.462309 58.00548 821.884234 123.609641 821.884234 123.609641zM521.591961-64.474039 391.659703-64.474039c-56.153928 10.987239-78.522378 48.536436-81.320097 54.980195-2.772136 6.453992-18.679431 36.696784-10.227945 87.995123 24.221658 76.861552 93.424786 82.492806 93.424786 82.492806l69.243037 0 0 83.268472 58.812477-0.901533L521.591961-64.474039zM763.715417-63.610368 614.197078-63.610368c-58.042951 14.678304-60.750619 55.04057-60.750619 55.04057L553.446459 153.522927l60.750619 0.950651 0-145.650241c3.691065-15.530718 23.3805-18.319228 23.3805-18.319228l61.606103 0L699.183681 153.522927l64.532759 0L763.71644-63.610368zM365.574604 76.601001c-2.883677-8.273431-9.471722-29.314653-3.740184-47.562249 11.098779-41.126676 47.563272-43.002396 47.563272-43.002396l52.336996 0L461.734688 111.421041l-56.028061 0C380.462686 104.053236 368.219851 84.893874 365.574604 76.601001z"  horiz-adv-x="1024" />

    
    <glyph glyph-name="baidu" unicode="&#58964;" d="M603.347474 136.290451l-42.188868 0c0 0-5.414313 3.346211-5.414313 12.784164l0 88.51394-47.604204-0.604774 0-98.463546c0 0 4.602831-26.031886 39.096437-26.031886l79.913051 0L627.149577 231.497836l-23.802102 0L603.347474 136.290451zM460.535885 231.497836l-44.62843 0c0 0-41.189098 1.62808-55.622832-45.093011-4.998851-31.17093 4.462638-43.048445 6.112208-46.99943 1.673106-3.90596 14.992459-26.91807 48.394197-26.91807l69.546959 0L484.337987 291.55977l-23.802102 0.535189L460.535885 231.497836zM460.535885 136.290451l-35.1915 0c0 0-21.685905 0.604774-28.357861 25.568329-3.346211 11.158131 0.533143 21.802562 2.27788 26.824949 1.626034 4.995781 8.878205 19.013029 23.870664 19.013029l37.399795 0L460.534861 136.290451zM511.276523 750.39799c-247.12947 0-447.470311-200.364377-447.470311-447.493847s200.339818-447.470311 447.470311-447.470311c247.130494 0 447.470311 200.339818 447.470311 447.470311S758.407016 750.39799 511.276523 750.39799zM538.565029 512.912158c3.555989 32.54216 42.467207 82.471316 73.659627 75.335802 31.101345-7.090489 59.459207-48.324612 53.718459-83.817987-5.624091-35.540448-33.867342-82.423221-77.7989-76.706009C544.285311 433.350101 534.335704 473.096337 538.565029 512.912158zM446.543196 602.471916c32.868595 0 59.459207-37.839817 59.459207-84.560908 0-46.766117-26.591635-84.609003-59.459207-84.609003-32.8205 0-59.45716 37.842887-59.45716 84.609003C387.086036 564.631076 413.722696 602.471916 446.543196 602.471916zM261.102716 402.109586c0 0 7.019881 69.615521 55.203276 73.91443 38.282908 3.301186 66.454528-38.584784 69.385277-62.548568 1.811252-15.550161 9.901511-86.677105-49.627281-99.484805C276.676413 301.230014 254.570953 369.938885 261.102716 402.109586zM714.197118 102.260403c-32.56365-76.751035-151.573137-36.888142-151.573137-36.888142s-43.88551 14.109346-94.812389 2.813069c-50.928926-11.389398-94.835925-7.066953-94.835925-7.066953s-59.573817-1.442862-76.54228 73.824379c-16.968463 75.356268 59.45716 116.614951 65.176418 123.633808 5.624091 7.135514 45.301765 34.098609 70.729901 76.727499 25.568329 42.62889 101.995999 76.751035 155.804509-7.064906 39.677675-56.855916 107.668185-109.481484 107.668185-109.481484S746.714719 178.967436 714.197118 102.260403zM704.250582 277.078964c-65.176418-1.463328-67.942415 44.048215-67.942415 76.658937 0 34.170241 7.018857 82.494852 59.504232 82.494852 52.390207 0 66.499553-51.207265 66.499553-68.199265C762.312976 350.925856 769.44849 278.520803 704.250582 277.078964z"  horiz-adv-x="1024" />

    
    <glyph glyph-name="biying" unicode="&#59593;" d="M340.5824 825.890133L102.536533 895.317333v-851.217066L340.650667 252.654933V825.890133zM102.536533 44.2368l238.045867-171.6224 580.881067 340.923733V484.215467L102.536533 44.168533zM409.463467 640.6144l113.732266-238.933333 138.8544-56.866134 259.413334 139.400534-506.0608 156.330666z"  horiz-adv-x="1024" />

    
    <glyph glyph-name="guge" unicode="&#58899;" d="M912 896H112A112 112 0 0 1 0 784v-800a112 112 0 0 1 112-112h800a112 112 0 0 1 112 112V784a112 112 0 0 1-112 112z m-100-804.8c-71.2-74.4-162.4-113.6-284-113.6-224 0-412 182.4-412 406.4S304 790.4 528 790.4a389.6 389.6 0 0 0 279.2-112L728.8 600A284 284 0 0 1 528 680c-163.2 0-291.2-132-291.2-296s128-295.2 291.2-295.2c106.4 0 167.2 42.4 205.6 80.8s52.8 77.6 60.8 140H528V420.8h374.4a366.4 366.4 0 0 0 5.6-69.6c0-83.2-22.4-186.4-96-260z"  horiz-adv-x="1024" />

    
    <glyph glyph-name="shezhi" unicode="&#58883;" d="M881 384c0 52.4 32.9 96.8 79 114.5-11 43.2-28 83.9-50.2 121.3C864.6 599.7 810 607.9 773 645c-37 37-45.2 91.7-25.1 136.8C710.4 804 669.7 821 626.5 832c-17.8-46.1-62.2-79-114.5-79-52.4 0-96.8 32.9-114.5 79-43.2-11-83.9-28-121.3-50.2 20.1-45.2 11.9-99.8-25.1-136.8-37-37-91.7-45.2-136.8-25.2C92 582.4 75 541.7 64 498.5c46.1-17.8 79-62.2 79-114.5 0-52.4-32.9-96.8-79-114.5 11-43.2 28-83.9 50.2-121.3C159.4 168.3 214 160.1 251 123c37-37 45.2-91.7 25.1-136.8C313.6-36 354.3-53 397.5-64c17.8 46.1 62.2 79 114.5 79 52.4 0 96.8-32.9 114.5-79 43.2 11 83.9 28 121.3 50.2-20.1 45.2-11.9 99.8 25.1 136.8 37 37 91.7 45.2 136.8 25.2C932 185.6 949 226.3 960 269.5c-46.1 17.7-79 62.1-79 114.5zM512 261c-67.9 0-123 55.1-123 123s55.1 123 123 123 123-55.1 123-123-55.1-123-123-123z"  horiz-adv-x="1024" />

    
    <glyph glyph-name="ren" unicode="&#58942;" d="M938.667 106.667c8.533 17.066 17.066 29.866 25.6 46.933 4.266 4.267 4.266 8.533 4.266 12.8 4.267 12.8 12.8 25.6 17.067 38.4 4.267 4.267 4.267 8.533 4.267 17.067 4.266 12.8 8.533 25.6 12.8 34.133 0 4.267 4.266 12.8 4.266 17.067 4.267 12.8 4.267 25.6 8.534 38.4 0 4.266 4.266 12.8 4.266 17.066C1024 345.6 1024 366.933 1024 384 1024 665.6 793.6 896 512 896S0 665.6 0 384c0-17.067 0-38.4 4.267-55.467 0-4.266 0-12.8 4.266-17.066 0-12.8 4.267-25.6 4.267-38.4 0-4.267 4.267-12.8 4.267-17.067 4.266-12.8 8.533-25.6 12.8-34.133 0-4.267 4.266-8.534 4.266-17.067C38.4 192 42.667 179.2 51.2 166.4c0-4.267 4.267-8.533 4.267-12.8 8.533-17.067 17.066-29.867 25.6-46.933C170.667-34.133 328.533-128 507.733-128S844.8-34.133 938.667 106.667c-4.267 0-4.267 0 0 0zM507.733 652.8c102.4 0 187.734-85.333 187.734-187.733s-85.334-187.734-187.734-187.734S320 362.667 320 465.067 405.333 652.8 507.733 652.8zM196.267 64C251.733 187.733 371.2 268.8 507.733 268.8s256-81.067 311.467-204.8c-81.067-76.8-192-128-311.467-128-119.466 4.267-230.4 51.2-311.466 128z"  horiz-adv-x="1024" />

    
    <glyph glyph-name="search" unicode="&#59008;" d="M894.387 76.986l-239.232 242.404c52.429 55.127 72.761 122.872 72.761 205.054 0 169.146-130.61 305.959-298.596 305.959-167.963 0-304.634-137.617-304.634-306.764 0-169.147 134.541-299.306 302.505-299.306 70.133 0 136.738 16.78 188.27 57.020l240.959-244.131c4.405-4.451 10.181-6.678 15.955-6.678 5.776 0 15.337 6.817 19.74 11.266 8.806 8.856 11.079 26.275 2.272 35.174zM172.832 527.428c0 140.363 113.378 254.499 252.724 254.499 139.368 0 252.749-114.136 252.749-254.499 0-140.317-113.381-254.5-252.749-254.5-139.346-0-252.724 114.183-252.724 254.5z"  horiz-adv-x="1024" />

    
    <glyph glyph-name="didian" unicode="&#58885;" d="M828.396043 463.629595C799.656489 239.665731 523.622712-109.348198 479.003492-107.460198c-44.73383 1.893116-327.779302 344.380398-349.392552 571.089793C108.888989 680.991088 261.919315 858.999294 479.003492 858.999294S856.181877 680.190863 828.396043 463.629595zM479.170291 771.139248c-162.813133 0-283.144732-146.219199-262.042111-323.482439 20.404726-171.403788 228.493018-448.313515 262.042111-449.860754 33.470299-1.542122 241.851257 290.113447 262.046205 449.860754C763.593132 624.651942 641.987516 771.139248 479.170291 771.139248zM479.68399 287.909501c-97.045243 0-175.720094 78.673827-175.720094 175.720094s78.673827 175.720094 175.720094 175.720094 175.720094-78.673827 175.720094-175.720094S576.730257 287.909501 479.68399 287.909501zM479.68399 551.489642c-48.52518 0-87.860047-39.334867-87.860047-87.860047s39.334867-87.860047 87.860047-87.860047 87.860047 39.334867 87.860047 87.860047S528.20917 551.489642 479.68399 551.489642z"  horiz-adv-x="1024" />

    
    <glyph glyph-name="jia" unicode="&#59368;" d="M512 65.163636c-16.290909 0-29.090909 12.8-29.090909 29.090909V674.909091c0 16.290909 12.8 29.090909 29.090909 29.090909s29.090909-12.8 29.090909-29.090909v-580.654546c0-16.290909-12.8-29.090909-29.090909-29.090909zM802.909091 354.909091H221.090909c-16.290909 0-29.090909 12.8-29.090909 29.090909s12.8 29.090909 29.090909 29.090909h581.818182c16.290909 0 29.090909-12.8 29.090909-29.090909s-12.8-29.090909-29.090909-29.090909z"  horiz-adv-x="1024" />

    
    <glyph glyph-name="jian" unicode="&#59369;" d="M802.909091 354.909091H221.090909c-16.290909 0-29.090909 12.8-29.090909 29.090909s12.8 29.090909 29.090909 29.090909h581.818182c16.290909 0 29.090909-12.8 29.090909-29.090909s-12.8-29.090909-29.090909-29.090909z"  horiz-adv-x="1024" />

    
    <glyph glyph-name="xing" unicode="&#58892;" d="M738.7-36c-10.6 0-20.7 2.4-32.3 8.7l-174.8 92c-4.3 2.4-10.6 4.3-17.3 4.3-6.3 0-13-1.9-17.3-3.4l-174.3-92.9c-10.6-6.3-20.7-8.7-32.7-8.7-20.7 0-40.9 9.6-54.4 25-14 15.4-19.3 36.6-15.4 57.3l33.7 194c1.9 12-2.4 24.1-11.1 32.7L101.7 409.4c-19.7 19.3-27 46.7-18.3 72.7s30.3 44.3 57.3 48.6l194 28.4c12 1.9 23.6 9.6 28.4 19.7l86.7 176.7c12 24.1 36.6 39 63.1 39 27 0 51-14.9 63.1-39l86.7-176.7c6.3-11.1 16.4-18.3 28.4-19.7l194-28.4c27-4.3 48.6-22.6 57.3-47.7 8.7-26 1.9-53.9-17.3-72.7L785.4 273.6c-9.6-8.7-13-20.7-11.1-32.7L807 47.8c3.4-20.7-1.9-41.4-15.4-57.3-12.5-16.9-32.2-26.5-52.9-26.5z"  horiz-adv-x="1024" />

    
    <glyph glyph-name="back" unicode="&#58933;" d="M224 416h640q14.016 0 23.008-8.992T896 384t-8.992-23.008T864 352H224q-14.016 0-23.008 8.992T192 384t8.992 23.008T224 416z m12.992-32l266.016-264.992Q512 108.992 512 96t-9.504-22.496T480 64t-23.008 8.992l-288 288Q160 371.008 160 384t8.992 23.008l288 288Q467.008 704 480 704t22.496-9.504T512 672t-8.992-23.008z"  horiz-adv-x="1024" />

    
    <glyph glyph-name="cart" unicode="&#59035;" d="M996.926905 641.194401c-19.11042 22.29549-44.59098 35.03577-73.25661 31.8507H326.469673c-19.11042 0-35.03577-12.74028-35.035769-31.8507v-3.18507c0-19.11042 12.74028-35.03577 31.850699-35.03577h598.793157c6.37014 0 12.74028-3.18507 19.11042-6.37014 6.37014-6.37014 6.37014-15.92535 3.18507-22.295489l-54.146189-382.208399c0-9.55521-15.92535-22.29549-28.66563-22.295489H307.359253c-15.92535 0-28.66563 19.11042-28.665629 31.850699l-60.51633 423.614308-31.8507 178.363919C179.956454 854.59409 135.365474 896 81.219285 896H36.628305C17.517885 896 1.592535 876.88958 1.592535 857.77916s15.92535-35.03577 35.03577-35.03577h44.59098c15.92535 0 28.66563-12.74028 31.850699-28.66563l31.8507-178.363919L202.251944 192.099533c6.37014-54.14619 50.96112-98.73717 101.92224-98.737169h554.202177c50.96112 0 95.5521 35.03577 101.922239 82.81182L1019.222395 561.567652c3.18507 28.66563-3.18507 57.33126-22.29549 79.626749zM221.362364-54.74339c0-41.40591 31.8507-73.25661 73.25661-73.25661s73.25661 31.8507 73.256609 73.25661-31.8507 73.25661-73.256609 73.256609-73.25661-35.03577-73.25661-73.256609z m576.497667 0c0-41.40591 31.8507-73.25661 73.25661-73.25661s73.25661 31.8507 73.256609 73.25661-31.8507 73.25661-73.256609 73.256609-73.25661-35.03577-73.25661-73.256609z m-19.11042 401.318818c19.11042 0 35.03577 15.92535 35.03577 35.03577s-15.92535 35.03577-35.03577 35.035769H371.060653c-19.11042 0-35.03577-15.92535-35.03577-35.035769s15.92535-35.03577 35.03577-35.03577h407.688958z"  horiz-adv-x="1024" />

    


  </font>
</defs>
</svg>
